# 3ds Max Wavefront OBJ Exporter v0.97b - (c)2007 guruware
# 创建的文件:24.10.2016 17:00:37

mtllib luzhang.mtl

#
# object Box001
#

v  63.3333 19.5974 -250.0000
v  63.3333 19.5974 250.0000
v  -63.3333 19.5974 250.0000
v  -63.3333 19.5974 -250.0000
v  -51.5863 500.0000 250.0000
v  51.5863 500.0000 250.0000
v  51.5863 500.0000 -250.0000
v  -51.5863 500.0000 -250.0000
v  -63.3333 0.0000 250.0000
v  -190.0000 59.6952 250.0000
v  -190.0000 0.0000 250.0000
v  190.0000 0.0000 -250.0000
v  190.0000 59.6951 -250.0000
v  190.0000 59.6951 250.0000
v  190.0000 0.0000 250.0000
v  63.3333 0.0000 -250.0000
v  -190.0000 59.6951 -250.0000
v  -190.0000 0.0000 -250.0000
v  65.0000 381.0405 -250.0000
v  65.0000 381.0405 250.0000
v  65.0000 262.0810 250.0000
v  65.0000 262.0810 -250.0000
v  19.1511 305.4910 -250.0000
v  23.4923 313.0103 -250.0000
v  25.0000 321.5608 -250.0000
v  12.5000 299.9101 -250.0000
v  4.3412 296.9406 -250.0000
v  -4.3412 296.9406 -250.0000
v  -65.0000 262.0810 -250.0000
v  -12.5000 299.9101 -250.0000
v  -19.1511 305.4911 -250.0000
v  -23.4923 313.0102 -250.0000
v  -25.0000 321.5608 -250.0000
v  -23.4923 330.1113 -250.0000
v  -19.1511 337.6304 -250.0000
v  -65.0000 381.0405 -250.0000
v  -12.5000 343.2114 -250.0000
v  -4.4136 346.1626 -250.0000
v  -4.3412 346.1809 -250.0000
v  4.3412 346.1809 -250.0000
v  12.5000 343.2114 -250.0000
v  19.1511 337.6305 -250.0000
v  23.4923 330.1113 -250.0000
v  -65.0000 381.0405 250.0000
v  -65.0000 262.0810 250.0000
v  127.5000 160.8881 250.0000
v  -127.5000 160.8881 250.0000
v  127.5000 160.8881 -250.0000
v  -127.5000 160.8881 -250.0000
v  63.3333 0.0000 250.0000
v  -63.3333 0.0000 -250.0000
v  65.0000 486.5863 -250.0000
v  65.0000 486.5863 250.0000
v  19.1511 424.4506 -250.0000
v  23.4923 431.9698 -250.0000
v  25.0000 440.5203 -250.0000
v  12.5000 418.8696 -250.0000
v  4.3412 415.9000 -250.0000
v  -4.3412 415.9000 -250.0000
v  -12.5000 418.8696 -250.0000
v  -19.1511 424.4506 -250.0000
v  -23.4923 431.9697 -250.0000
v  -25.0000 440.5203 -250.0000
v  -23.4923 449.0707 -250.0000
v  -19.1511 456.5899 -250.0000
v  -65.0000 486.5863 -250.0000
v  -61.6466 496.6466 -250.0000
v  -12.5000 462.1709 -250.0000
v  -4.3412 465.1404 -250.0000
v  4.3412 465.1404 -250.0000
v  12.5000 462.1708 -250.0000
v  61.6466 496.6466 -250.0000
v  19.1511 456.5899 -250.0000
v  23.4923 449.0708 -250.0000
v  -65.0000 486.5863 250.0000
v  -4.3754 346.1809 250.0000
v  -12.5000 343.2114 250.0000
v  -4.3657 346.1720 250.0000
v  25.0000 321.5608 250.0000
v  23.4923 313.0102 250.0000
v  19.1511 305.4910 250.0000
v  23.4923 330.1113 250.0000
v  19.1511 337.6305 250.0000
v  12.5000 343.2114 250.0000
v  4.3412 346.1809 250.0000
v  -19.1511 337.6304 250.0000
v  -23.4923 330.1113 250.0000
v  12.5000 299.9101 250.0000
v  4.3412 296.9406 250.0000
v  -4.3412 296.9406 250.0000
v  -12.5000 299.9101 250.0000
v  -19.1511 305.4911 250.0000
v  -23.4923 313.0102 250.0000
v  -25.0000 321.5608 250.0000
v  25.0000 440.5203 250.0000
v  23.4923 431.9698 250.0000
v  19.1511 424.4506 250.0000
v  61.6466 496.6466 250.0000
v  23.4923 449.0708 250.0000
v  19.1511 456.5899 250.0000
v  12.5000 462.1708 250.0000
v  -61.6466 496.6466 250.0000
v  4.3412 465.1404 250.0000
v  -4.3412 465.1404 250.0000
v  -4.4136 465.1221 250.0000
v  -12.5000 462.1709 250.0000
v  -19.1511 456.5899 250.0000
v  -23.4923 449.0707 250.0000
v  12.5000 418.8696 250.0000
v  4.3412 415.9000 250.0000
v  -4.3412 415.9000 250.0000
v  -12.5000 418.8696 250.0000
v  -19.1511 424.4506 250.0000
v  -23.4923 431.9697 250.0000
v  -25.0000 440.5203 250.0000
# 115 vertices

vn -0.7071 -0.7071 -0.0000
vn 0.7071 -0.7071 -0.0000
vn 0.7071 -0.7071 0.0000
vn -0.1602 0.9871 -0.0000
vn 0.1602 0.9871 -0.0000
vn 0.0000 0.0000 1.0000
vn 1.0000 0.0000 -0.0000
vn 0.9620 0.2731 -0.0000
vn 0.0000 0.0000 -1.0000
vn -1.0000 0.0000 -0.0000
vn -0.9620 0.2731 -0.0000
vn -0.0000 -0.0000 -1.0000
vn 0.0000 -0.0000 -1.0000
vn -0.0000 0.0000 -1.0000
vn 0.0001 -0.0001 -1.0000
vn 0.8508 0.5255 -0.0000
vn -0.8508 0.5255 -0.0000
vn 0.0000 -1.0000 -0.0000
vn 0.9871 0.1602 -0.0000
vn -0.9871 0.1602 -0.0000
vn -0.0000 0.0000 1.0000
vn -0.0000 -0.0000 1.0000
vn 0.0000 -0.0000 1.0000
vn 0.0001 -0.0000 1.0000
vn -0.9397 -0.3420 -0.0000
vn -0.7660 -0.6428 -0.0000
vn -0.7660 -0.6428 0.0000
vn -0.5000 -0.8660 0.0000
vn -0.1736 -0.9848 0.0000
vn -0.1736 -0.9848 -0.0000
vn 0.9322 -0.3616 0.0163
vn 0.9793 -0.2019 0.0114
vn 0.1242 -0.9923 -0.0009
vn 0.5000 -0.8660 -0.0000
vn 0.2939 -0.9558 -0.0009
vn 0.5004 -0.8658 -0.0000
vn 0.7660 -0.6428 -0.0000
vn 0.9397 -0.3420 -0.0000
vn 1.0000 -0.0000 -0.0000
vn 1.0000 -0.0000 0.0000
vn 0.9397 0.3420 0.0000
vn 0.7660 0.6428 0.0000
vn 0.7660 0.6428 -0.0000
vn 0.5000 0.8660 -0.0000
vn 0.1736 0.9848 -0.0000
vn -0.1736 0.9848 -0.0000
vn -0.5000 0.8660 -0.0000
vn -0.7660 0.6428 -0.0000
vn -0.7660 0.6428 0.0000
vn -0.9397 0.3420 -0.0000
vn -0.9397 0.3420 0.0000
vn -1.0000 -0.0000 -0.0000
vn -0.1737 -0.9848 0.0000
vn -0.1737 -0.9848 -0.0000
vn 0.1235 -0.9923 -0.0000
vn 0.1736 -0.9848 0.0000
vn 0.2944 -0.9557 0.0000
vn 0.5004 -0.8658 0.0000
vn 0.9397 0.3420 -0.0000
vn 0.3162 0.9487 -0.0000
vn -0.3162 0.9487 -0.0000
vn 0.9487 0.3162 -0.0000
vn -0.9487 0.3162 -0.0000
# 63 vertex normals

vt 0.4444 1.0000 0.0000
vt 0.4444 0.0000 0.0000
vt 0.5556 0.0000 0.0000
vt 0.5556 1.0000 0.0000
vt 0.1032 0.0000 0.0000
vt 0.8968 0.0000 0.0000
vt 0.8968 1.0000 0.0000
vt 0.1032 1.0000 0.0000
vt 0.3333 0.0000 0.0000
vt 0.0000 0.2500 0.0000
vt 0.0000 0.0000 0.0000
vt 1.0000 0.0000 0.0000
vt 1.0000 0.2500 0.0000
vt 1.0000 0.7500 0.0000
vt 0.0000 0.7500 0.0000
vt 0.0000 0.5000 0.0000
vt 1.0000 0.5000 0.0000
vt 0.3527 0.5912 0.0000
vt 0.3193 0.6070 0.0000
vt 0.3077 0.6250 0.0000
vt 0.4038 0.5795 0.0000
vt 0.4666 0.5733 0.0000
vt 0.5334 0.5733 0.0000
vt 0.5962 0.5795 0.0000
vt 0.6473 0.5912 0.0000
vt 0.6807 0.6070 0.0000
vt 0.6923 0.6250 0.0000
vt 0.6807 0.6430 0.0000
vt 0.6473 0.6588 0.0000
vt 0.5962 0.6705 0.0000
vt 0.5341 0.6767 0.0000
vt 0.5334 0.6767 0.0000
vt 0.4666 0.6767 0.0000
vt 0.4038 0.6705 0.0000
vt 0.3527 0.6588 0.0000
vt 0.3193 0.6430 0.0000
vt 1.0000 0.3750 0.0000
vt 0.0000 0.3750 0.0000
vt 0.0000 1.0000 0.0000
vt 0.3333 1.0000 0.0000
vt 1.0000 1.0000 0.0000
vt 0.6667 1.0000 0.0000
vt 0.6667 0.0000 0.0000
vt 1.0000 0.9718 0.0000
vt 0.0000 0.9718 0.0000
vt 0.3527 0.8412 0.0000
vt 0.3193 0.8570 0.0000
vt 0.3077 0.8750 0.0000
vt 0.4038 0.8295 0.0000
vt 0.4666 0.8233 0.0000
vt 0.5334 0.8233 0.0000
vt 0.5962 0.8295 0.0000
vt 0.6473 0.8412 0.0000
vt 0.6807 0.8570 0.0000
vt 0.6923 0.8750 0.0000
vt 0.6807 0.8930 0.0000
vt 0.6473 0.9088 0.0000
vt 0.9742 0.9930 0.0000
vt 0.5962 0.9205 0.0000
vt 0.5334 0.9267 0.0000
vt 0.4666 0.9267 0.0000
vt 0.4038 0.9205 0.0000
vt 0.0258 0.9930 0.0000
vt 0.3527 0.9088 0.0000
vt 0.3193 0.8930 0.0000
vt 0.4659 0.6767 0.0000
vt 0.4662 0.6767 0.0000
vt 0.4661 0.9267 0.0000
vt 0.8056 0.8966 1.0000
vt 0.8056 0.0811 1.0000
vt 0.7500 0.0811 1.0000
vt 0.7500 0.8966 1.0000
vt 0.8611 0.8966 1.0000
vt 0.8611 0.0811 1.0000
vt 0.9167 0.8966 1.0000
vt 0.9167 0.0811 1.0000
vt 0.9722 0.8966 1.0000
vt 0.9722 0.0811 1.0000
vt 1.0277 0.8966 1.0000
vt 1.0278 0.8966 1.0000
vt 1.0278 0.0811 1.0000
vt 0.0278 0.0811 1.0000
vt 0.0278 0.8966 1.0000
vt 0.0833 0.8966 1.0000
vt 0.0283 0.0811 1.0000
vt 0.0833 0.0811 1.0000
vt 0.1389 0.8966 1.0000
vt 0.1389 0.0811 1.0000
vt 0.1944 0.8966 1.0000
vt 0.1944 0.0811 1.0000
vt 0.2500 0.8966 1.0000
vt 0.2500 0.0811 1.0000
vt 0.3056 0.8966 1.0000
vt 0.3056 0.0811 1.0000
vt 0.3611 0.8966 1.0000
vt 0.3611 0.0811 1.0000
vt 0.4167 0.8966 1.0000
vt 0.4167 0.0811 1.0000
vt 0.4722 0.8966 1.0000
vt 0.4722 0.0811 1.0000
vt 0.5278 0.8966 1.0000
vt 0.5278 0.0811 1.0000
vt 0.5833 0.8966 1.0000
vt 0.5833 0.0811 1.0000
vt 0.6389 0.8966 1.0000
vt 0.6389 0.0811 1.0000
vt 0.6944 0.8966 1.0000
vt 0.6944 0.0811 1.0000
vt 0.0283 0.8966 1.0000
vt 1.0000 0.9912 0.0000
vt 1.0000 1.0106 0.0000
vt -0.0000 1.0106 0.0000
vt -0.0000 0.9912 0.0000
# 113 texture coords

g Box001
usemtl 01___Default
f 1/1/1 2/2/1 3/3/2 4/4/3 
f 5/5/4 6/6/5 7/7/5 8/8/4 
f 9/9/6 3/2/6 10/10/6 11/11/6 
f 12/12/7 13/13/8 14/10/8 15/11/7 
f 16/9/9 1/2/9 13/10/9 12/11/9 
f 11/12/10 10/13/11 17/10/11 18/11/10 
usemtl 02___Default
f 19/14/7 20/15/7 21/16/8 22/17/8 
f 23/18/12 24/19/9 25/20/13 22/16/13 
f 26/21/12 23/18/12 22/16/13 27/22/9 
f 28/23/14 27/22/9 22/16/13 29/17/12 
f 30/24/14 28/23/14 29/17/12 31/25/12 
f 32/26/13 31/25/12 29/17/12 33/27/14 
f 34/28/15 33/27/14 29/17/12 35/29/9 
f 35/29/9 29/17/12 36/14/14 37/30/12 
f 38/31/12 37/30/12 36/14/14 39/32/9 
f 40/33/12 39/32/9 36/14/14 41/34/13 
f 41/34/13 36/14/14 19/15/9 42/35/14 
f 43/36/13 42/35/14 19/15/9 25/20/13 
f 19/15/9 22/16/13 25/20/13 
f 44/14/10 36/15/10 29/16/11 45/17/11 
f 46/37/6 47/38/6 10/10/6 14/13/6 
f 48/37/16 46/38/16 14/10/8 13/13/8 
f 49/37/9 48/38/9 13/10/9 17/13/9 
f 47/37/17 49/38/17 17/10/11 10/13/11 
usemtl 01___Default
f 12/39/18 15/11/18 50/9/1 16/40/1 
f 11/12/18 18/41/18 51/42/3 9/43/3 
f 16/40/1 50/9/1 2/2/1 1/1/1 
f 9/43/3 51/42/3 4/4/3 3/3/2 
f 52/44/19 53/45/19 20/15/7 19/14/7 
f 54/46/12 55/47/9 56/48/13 19/15/13 
f 57/49/12 54/46/12 19/15/13 58/50/9 
f 59/51/14 58/50/9 19/15/13 36/14/12 
f 60/52/14 59/51/14 36/14/12 61/53/12 
f 62/54/13 61/53/12 36/14/12 63/55/14 
f 64/56/15 63/55/14 36/14/12 65/57/9 
f 36/14/12 66/44/9 67/58/9 8/7/14 
f 65/57/9 36/14/12 8/7/14 68/59/12 
f 68/59/12 8/7/14 69/60/9 
f 70/61/12 69/60/9 8/7/14 71/62/13 
f 8/7/14 7/8/9 72/63/9 52/45/9 
f 71/62/13 8/7/14 52/45/9 73/64/13 
f 74/65/13 73/64/13 52/45/9 56/48/13 
f 52/45/9 19/15/13 56/48/13 
f 75/44/20 66/45/20 36/15/10 44/14/10 
f 21/17/21 45/16/6 47/38/6 46/37/6 
f 22/17/8 21/16/8 46/38/16 48/37/16 
f 29/17/12 22/16/13 48/38/9 49/37/9 
f 45/17/11 29/16/11 49/38/17 47/37/17 
f 3/2/6 2/3/6 14/13/6 10/10/6 
f 2/3/6 50/43/6 15/12/6 14/13/6 
f 1/2/9 4/3/9 17/13/9 13/10/9 
f 4/3/9 51/43/9 18/12/9 17/13/9 
usemtl 02___Default
f 76/66/6 77/34/22 78/67/22 
f 79/27/23 80/26/6 81/25/21 21/17/21 
f 79/27/23 21/17/21 20/14/22 82/28/23 
f 83/29/22 82/28/23 20/14/22 84/30/23 
f 84/30/23 20/14/22 44/15/23 85/32/22 
f 85/32/22 44/15/23 76/66/6 
f 77/34/22 76/66/6 44/15/23 86/35/6 
f 86/35/6 44/15/23 45/16/6 87/36/24 
f 21/17/21 81/25/21 88/24/22 89/23/6 
f 21/17/21 89/23/6 90/22/21 45/16/6 
f 45/16/6 90/22/21 91/21/21 92/18/21 
f 45/16/6 92/18/21 93/19/23 94/20/21 
f 45/16/6 94/20/21 87/36/24 
usemtl 01___Default
f 95/55/6 96/54/6 97/53/21 20/14/21 
f 20/14/21 53/44/6 98/58/6 6/7/22 
f 95/55/6 20/14/21 6/7/22 99/56/23 
f 100/57/21 99/56/23 6/7/22 101/59/23 
f 6/7/22 5/8/6 102/63/6 75/45/23 
f 101/59/23 6/7/22 75/45/23 103/60/12 
f 104/61/6 103/60/12 75/45/23 105/68/22 
f 106/62/22 105/68/22 75/45/23 107/64/6 
f 107/64/6 75/45/23 44/15/6 108/65/24 
f 20/14/21 97/53/21 109/52/22 110/51/6 
f 20/14/21 110/51/6 111/50/21 44/15/6 
f 44/15/6 111/50/21 112/49/21 113/46/21 
f 44/15/6 113/46/21 114/47/23 115/48/21 
f 44/15/6 115/48/21 108/65/24 
usemtl 02___Default
f 82/69/25 43/70/25 25/71/10 79/72/10 
f 83/73/26 42/74/27 43/70/25 82/69/25 
f 42/74/27 83/73/26 84/75/28 41/76/28 
f 85/77/29 40/78/30 41/76/28 84/75/28 
f 40/78/30 85/77/29 76/79/31 
f 40/78/30 76/79/31 78/80/32 39/81/33 
f 39/82/33 78/83/32 77/84/34 38/85/35 
f 37/86/36 38/85/35 77/84/34 
f 37/86/36 77/84/34 86/87/37 35/88/37 
f 87/89/38 34/90/38 35/88/37 86/87/37 
f 34/90/38 87/89/38 94/91/39 33/92/40 
f 93/93/41 32/94/41 33/92/40 94/91/39 
f 32/94/41 93/93/41 92/95/42 31/96/43 
f 91/97/44 30/98/44 31/96/43 92/95/42 
f 30/98/44 91/97/44 90/99/45 28/100/45 
f 89/101/46 27/102/46 28/100/45 90/99/45 
f 27/102/46 89/101/46 88/103/47 26/104/47 
f 81/105/48 23/106/49 26/104/47 88/103/47 
f 23/106/49 81/105/48 80/107/50 24/108/51 
f 79/72/10 25/71/10 24/108/51 80/107/50 
usemtl 01___Default
f 99/69/25 74/70/25 56/71/52 95/72/52 
f 100/73/26 73/74/27 74/70/25 99/69/25 
f 73/74/27 100/73/26 101/75/28 71/76/28 
f 103/77/53 70/78/54 71/76/28 101/75/28 
f 70/78/54 103/77/53 104/80/55 69/81/56 
f 69/82/56 104/83/55 105/109/57 106/84/58 
f 69/82/56 106/84/58 68/86/34 
f 68/86/34 106/84/58 107/87/37 65/88/37 
f 108/89/38 64/90/38 65/88/37 107/87/37 
f 64/90/38 108/89/38 115/91/39 63/92/39 
f 114/93/59 62/94/59 63/92/39 115/91/39 
f 62/94/59 114/93/59 113/95/43 61/96/43 
f 112/97/44 60/98/44 61/96/43 113/95/43 
f 60/98/44 112/97/44 111/99/45 59/100/45 
f 110/101/46 58/102/46 59/100/45 111/99/45 
f 58/102/46 110/101/46 109/103/47 57/104/47 
f 97/105/48 54/106/48 57/104/47 109/103/47 
f 54/106/48 97/105/48 96/107/50 55/108/50 
f 95/72/52 56/71/52 55/108/50 96/107/50 
f 72/110/60 7/111/5 6/112/5 98/113/60 
f 102/110/61 5/111/4 8/112/4 67/113/61 
f 52/44/19 72/110/62 98/113/62 53/45/19 
f 75/44/20 102/110/63 67/113/63 66/45/20 
# 112 polygons - 10 triangles

